<svg xmlns="http://www.w3.org/2000/svg" xmlns:xlink="http://www.w3.org/1999/xlink" version="1.1" x="0px" y="0px" viewBox="0 0 100 125" style="enable-background:new 0 0 100 100;" xml:space="preserve"><path d="M50,16c-18.7,0-34,15.3-34,34s15.3,34,34,34c18.7,0,34-15.3,34-34S68.7,16,50,16z M50,81c-7.5,0-14.3-2.6-19.7-7.1  c0.6-1.8,1.7-5.5,1.7-6.9c0-2-4-2-5-3s-1-4-2-5c-0.8-0.8-4-2.2-5.4-2.7c-0.4-2-0.6-4.1-0.6-6.3c0-0.9,0-1.7,0.1-2.6  c2.2-1.1,6.9-3.7,6.9-4.4c0-1-2-6-2-7s2-3,3-3s1,4,2,4s4-6,4-7c0-0.9-2.2-3.2-2.8-3.8C35.6,21.7,42.5,19,50,19  c5.4,0,10.4,1.4,14.8,3.8C63,23.9,59.7,26,59,26c-1,0-5,0-6,0s-5.7,4.3-5,5c1,1,4-1,5-1s1,3,0,4s-7,1-8,1s-3,4-3,5s1,2,2,2s6-4,7-4  s3,2,4,2s4-3,5-2s-3,3-3,4s1,1,2,1s1,2,0,2s-6,0-7,0s-2-2-3-2s-11,4-11,5s0,5,0,6s4,4,5,4s3-1,4-1s4,5,4,6s-1,2-1,3s1,3,2,4s3,2,4,1  s6-6,6-7s0-2,0-3s3.5-2.8,3-4c-0.3-0.7-2,0-3-1s-1-9-1-9s2,6,3,7s4-2,4-3s-2-5-2-5s1,1,2,2s2,0,3,0s3,7,4,7s1-3,2-4  c0.7-0.7,2.7-0.9,4-1C81,67.1,67.1,81,50,81z"/><text x="0" y="115" fill="#000000" font-size="5px" font-weight="bold" font-family="'Helvetica Neue', Helvetica, Arial-Unicode, Arial, Sans-serif">Created by Setyo Ari Wibowo</text><text x="0" y="120" fill="#000000" font-size="5px" font-weight="bold" font-family="'Helvetica Neue', Helvetica, Arial-Unicode, Arial, Sans-serif">from the Noun Project</text></svg>